<?xml version="1.0" standalone="no"?>
<!DOCTYPE svg PUBLIC "-//W3C//DTD SVG 20010904//EN"
 "http://www.w3.org/TR/2001/REC-SVG-20010904/DTD/svg10.dtd">
<svg version="1.0" xmlns="http://www.w3.org/2000/svg"
 width="197.000000pt" height="197.000000pt" viewBox="0 0 197.000000 197.000000"
 preserveAspectRatio="xMidYMid meet">
<metadata>
Created by potrace 1.14, written by Peter Selinger 2001-2017
</metadata>
<g transform="translate(0.000000,197.000000) scale(0.100000,-0.100000)"
fill="#000000" stroke="none">
<path d="M845 1953 c-144 -22 -326 -96 -439 -177 -113 -81 -243 -232 -305
-353 -27 -54 -55 -131 -78 -213 -25 -92 -25 -348 0 -440 53 -191 120 -312 251
-449 90 -93 169 -150 287 -205 154 -73 236 -90 424 -90 188 0 270 17 424 90
118 55 197 112 287 205 131 137 198 258 251 449 25 92 25 348 0 440 -53 191
-120 312 -251 449 -90 93 -169 150 -287 205 -139 66 -237 88 -399 91 -74 2
-148 1 -165 -2z m33 -860 c-4 -390 -6 -400 -65 -483 -32 -44 -101 -93 -156
-110 -58 -18 -179 -15 -240 7 -116 41 -197 163 -197 298 l0 65 65 0 65 0 0
-42 c0 -99 46 -173 125 -204 84 -32 187 -1 233 69 l27 40 3 299 3 298 -200 0
-201 0 0 60 0 60 271 0 271 0 -4 -357z m842 297 l0 -60 -140 0 -140 0 0 -410
0 -410 -70 0 -70 0 0 410 0 410 -140 0 -140 0 0 60 0 60 350 0 350 0 0 -60z"/>
</g>
</svg>
